# xmcd CD database file
#
# Track frame offsets:
#	150
#	17540
#	32715
#
# Disc length: 611 seconds
#
# Revision: 0
# Processed by: cddbd v1.5.1PL0 Copyright (c) Steve Scherf et al.
# Submitted via: CDex 1.51
#
DISCID=17026103
DTITLE=The Collectors - 涙のレインボーアイズ
DYEAR=1996
DGENRE=JPop
TTITLE0=涙のレインボーアイズ
TTITLE1=勝どき橋まであと2km
TTITLE2=Sha-la-la-la-lee
EXTD=YEAR: 1996
EXTT0=
EXTT1=
EXTT2=
PLAYORDER=
